<?xml version="1.0" standalone="no"?>
<!DOCTYPE svg PUBLIC "-//W3C//DTD SVG 20010904//EN"
 "http://www.w3.org/TR/2001/REC-SVG-20010904/DTD/svg10.dtd">
<svg version="1.0" xmlns="http://www.w3.org/2000/svg"
 width="306.000000pt" height="133.000000pt" viewBox="0 0 306.000000 133.000000"
 preserveAspectRatio="xMidYMid meet">

<g transform="translate(0.000000,133.000000) scale(0.100000,-0.100000)"
fill="#000000" stroke="none">
<path d="M1070 885 l0 -295 60 0 60 0 0 120 0 120 75 0 75 0 0 60 0 60 -75 0
-75 0 0 60 0 60 100 0 100 0 0 55 0 55 -160 0 -160 0 0 -295z m168 238 l-108
-4 0 -109 0 -110 85 0 c50 0 85 -4 85 -10 0 -6 -35 -10 -85 -10 l-84 0 -4
-122 c-1 -68 -4 -12 -5 125 l-2 247 113 -2 112 -2 -107 -3z"/>
<path d="M1636 893 c-42 -159 -77 -291 -76 -295 0 -5 27 -8 60 -8 43 0 60 4
60 13 0 7 7 37 15 65 l16 52 64 0 64 0 15 -54 c9 -30 16 -59 16 -65 0 -7 23
-11 60 -11 33 0 60 3 60 7 0 4 -35 137 -77 295 l-77 288 -61 0 -62 0 -77 -287z
m184 107 c21 -69 53 -178 73 -243 36 -122 38 -155 2 -44 l-20 62 -101 3 -101
3 -18 -63 c-10 -35 -22 -67 -27 -72 -4 -5 1 19 11 55 96 335 126 429 134 426
6 -2 27 -59 47 -127z"/>
<path d="M1741 1013 c-42 -140 -61 -205 -61 -215 0 -4 43 -8 96 -8 86 0 95 2
90 18 -42 145 -89 298 -91 300 -2 2 -17 -40 -34 -95z m69 -175 c0 -5 -16 -8
-35 -8 -19 0 -35 3 -35 7 0 4 8 34 17 67 l17 61 18 -60 c10 -33 18 -63 18 -67z"/>
<path d="M2200 885 l0 -295 160 0 160 0 0 55 0 55 -100 0 -100 0 0 240 0 240
-60 0 -60 0 0 -295z m173 -238 l102 -3 -107 -2 -108 -2 2 248 3 247 2 -242 3
-242 103 -4z"/>
<path d="M2737 1173 c-4 -3 -7 -136 -7 -295 l0 -288 163 2 162 3 0 50 0 50
-102 3 -103 3 0 239 0 240 -53 0 c-30 0 -57 -3 -60 -7z m171 -526 l107 -3
-112 -2 -113 -2 2 248 3 247 2 -242 3 -242 108 -4z"/>
<path d="M340 1132 c-222 -58 -368 -279 -331 -501 15 -94 53 -171 117 -241 85
-91 193 -140 315 -141 35 -1 70 -6 79 -11 12 -8 25 -6 48 6 l32 17 0 -48 c0
-58 17 -47 41 25 12 36 24 52 52 67 74 40 31 68 -45 29 -27 -14 -47 -21 -44
-16 6 10 -26 22 -59 22 -19 -1 -18 -2 4 -21 21 -17 22 -22 10 -30 -7 -5 -32
-6 -54 -3 -36 6 -38 5 -26 -10 12 -14 7 -16 -50 -15 -40 0 -87 9 -124 22 -55
21 -60 25 -67 61 -5 23 -4 43 1 50 6 7 10 21 9 31 0 11 3 34 7 51 6 26 2 34
-25 57 -17 15 -37 27 -44 27 -21 0 -56 40 -56 64 0 12 -16 43 -36 69 -31 40
-38 44 -54 34 -29 -17 -35 -1 -13 36 13 21 18 44 16 63 -4 27 2 37 44 73 26
24 67 53 90 65 23 11 52 36 65 55 13 19 34 41 48 50 25 15 25 15 7 -6 -29 -33
-6 -34 47 -2 36 23 47 35 43 49 -10 37 83 42 107 5 21 -33 21 -35 -13 -35 -29
0 -57 -21 -44 -33 13 -13 35 -7 29 8 -3 9 0 15 9 15 9 0 15 -10 15 -24 0 -18
-6 -25 -22 -28 -14 -2 -29 -15 -38 -35 -8 -17 -23 -34 -32 -36 -10 -3 -18 -15
-18 -26 0 -29 31 -27 60 4 27 28 40 32 40 10 0 -16 30 -20 46 -6 12 10 94 2
94 -10 0 -23 -50 -33 -100 -20 -46 12 -53 11 -91 -11 -62 -34 -82 -67 -87
-142 l-4 -63 36 -22 c29 -18 44 -21 80 -16 62 10 86 0 86 -34 0 -16 7 -34 15
-41 9 -7 15 -28 15 -49 -1 -20 1 -54 4 -76 3 -22 5 -43 5 -47 2 -17 20 -6 59
34 52 52 64 78 97 207 24 91 25 105 12 113 -24 13 -89 79 -84 84 6 6 49 -16
58 -30 11 -14 39 2 39 22 0 10 -14 32 -30 49 -25 26 -27 30 -11 26 41 -11 70
5 73 40 l3 32 28 -40 c36 -52 74 -174 58 -184 -6 -4 -9 -15 -5 -24 4 -11 -4
-27 -25 -46 -20 -19 -31 -39 -31 -57 0 -15 -8 -51 -17 -80 -14 -46 -15 -57 -3
-79 12 -23 11 -28 -15 -55 -16 -16 -26 -32 -23 -35 10 -10 68 68 99 133 82
169 40 385 -100 514 -121 112 -266 150 -421 110z m360 -792 c-8 -5 -19 -10
-25 -10 -5 0 -3 5 5 10 8 5 20 10 25 10 6 0 3 -5 -5 -10z"/>
<path d="M1118 484 c-33 -18 -48 -43 -48 -82 0 -42 35 -81 97 -108 43 -19 53
-28 53 -48 0 -22 -16 -36 -41 -36 -6 0 -20 11 -33 25 l-23 25 -22 -24 c-29
-31 -21 -59 23 -80 92 -43 176 4 176 98 0 45 -23 71 -95 109 -33 18 -60 39
-60 47 0 24 53 25 79 2 21 -20 21 -20 44 -2 19 16 21 23 13 39 -27 49 -106 67
-163 35z m80 -21 c-10 -2 -26 -2 -35 0 -10 3 -2 5 17 5 19 0 27 -2 18 -5z
m-71 -21 c-10 -10 -18 -27 -18 -38 -1 -18 -2 -18 -6 -1 -4 16 21 57 35 57 3 0
-2 -8 -11 -18z m114 1 c13 -16 12 -17 -3 -4 -10 7 -18 15 -18 17 0 8 8 3 21
-13z m-110 -80 c13 -16 12 -17 -3 -4 -10 7 -18 15 -18 17 0 8 8 3 21 -13z
m124 -74 c13 -20 0 -15 -25 9 -23 22 -23 24 -3 13 12 -6 25 -16 28 -22z m12
-51 c-3 -8 -6 -5 -6 6 -1 11 2 17 5 13 3 -3 4 -12 1 -19z m-26 -49 c-13 -11
-37 -18 -55 -18 -29 1 -28 2 9 9 22 4 44 15 49 23 6 9 13 14 16 11 3 -3 -6
-14 -19 -25z m-100 4 c13 -16 12 -17 -3 -4 -17 13 -22 21 -14 21 2 0 10 -8 17
-17z"/>
<path d="M1410 465 c0 -34 1 -35 40 -35 l40 0 0 -145 0 -145 35 0 35 0 0 145
0 145 40 0 c39 0 40 1 40 35 l0 35 -115 0 -115 0 0 -35z m163 -2 l-43 -4 -2
-142 -2 -142 -3 142 -4 142 -42 4 c-23 2 -1 4 48 4 50 0 71 -2 48 -4z"/>
<path d="M1770 319 l0 -180 33 3 c31 3 32 5 35 51 4 62 23 61 51 -3 20 -46 24
-50 56 -50 41 0 42 7 14 61 -20 40 -20 42 -2 61 13 15 19 40 22 99 3 76 2 79
-27 109 -29 28 -35 30 -106 30 l-76 0 0 -181z m160 131 c26 -26 28 -126 4
-156 -15 -18 -15 -18 -5 3 6 12 11 46 11 77 0 70 -15 86 -81 86 l-49 0 0 -90
0 -90 53 -2 52 -2 -52 -3 -52 -4 -4 -47 c-2 -26 -4 19 -5 101 l-2 147 55 0
c42 0 60 -5 75 -20z m-32 -32 c13 -13 16 -66 6 -92 -4 -10 -18 -16 -35 -16
-29 0 -29 0 -29 60 0 56 2 60 23 60 13 0 28 -5 35 -12z"/>
<path d="M2130 320 l0 -181 93 3 92 3 3 33 3 32 -60 0 -61 0 0 40 0 40 45 0
c45 0 45 0 45 35 0 35 0 35 -45 35 -45 0 -45 0 -45 35 l0 35 60 0 60 0 0 35 0
35 -95 0 -95 0 0 -180z m127 143 c-20 -2 -52 -2 -70 0 -17 2 0 4 38 4 39 0 53
-2 32 -4z m-19 -140 c-16 -2 -40 -2 -55 0 -16 2 -3 4 27 4 30 0 43 -2 28 -4z
m15 -150 c-18 -2 -48 -2 -65 0 -18 2 -4 4 32 4 36 0 50 -2 33 -4z"/>
<path d="M2525 488 c-15 -46 -85 -317 -85 -331 0 -15 7 -18 32 -15 28 3 33 8
41 41 9 36 11 37 51 37 41 0 43 -2 52 -37 8 -33 13 -38 42 -41 22 -2 32 1 32
10 0 11 -67 271 -86 331 -6 20 -72 24 -79 5z m37 -40 c-7 -7 -12 -8 -12 -2 0
14 12 26 19 19 2 -3 -1 -11 -7 -17z m-15 -40 c-3 -8 -6 -5 -6 6 -1 11 2 17 5
13 3 -3 4 -12 1 -19z m-20 -70 c-3 -8 -6 -5 -6 6 -1 11 2 17 5 13 3 -3 4 -12
1 -19z m50 -44 c-3 -3 -12 -4 -19 -2 -12 2 -13 10 -5 38 l10 35 10 -33 c6 -18
7 -35 4 -38z m-70 -26 c-3 -8 -6 -5 -6 6 -1 11 2 17 5 13 3 -3 4 -12 1 -19z
m120 -10 c-3 -8 -6 -5 -6 6 -1 11 2 17 5 13 3 -3 4 -12 1 -19z"/>
<path d="M2820 320 l0 -180 35 0 35 0 0 69 c0 48 4 72 15 81 12 10 16 10 20
-1 2 -8 15 -43 27 -79 22 -63 24 -65 61 -68 20 -2 37 1 37 7 0 6 -18 57 -40
113 -22 57 -40 107 -40 112 0 5 18 33 40 62 22 29 40 56 40 59 0 3 -17 5 -37
5 -35 0 -42 -6 -78 -56 l-40 -56 -3 56 -3 56 -34 0 -35 0 0 -180z m53 -13 c9
5 9 4 0 -8 -6 -8 -13 -39 -16 -69 -2 -30 -3 13 -3 95 0 83 2 110 3 62 3 -65 7
-86 16 -80z m127 159 c0 -2 -8 -10 -17 -17 -16 -13 -17 -12 -4 4 13 16 21 21
21 13z m-30 -40 c0 -2 -8 -10 -17 -17 -16 -13 -17 -12 -4 4 13 16 21 21 21 13z
m-33 -58 c0 -13 -1 -17 -4 -10 -3 6 -10 9 -16 5 -7 -4 -6 1 2 10 17 21 17 21
18 -5z m-27 -22 c0 -2 -8 -10 -17 -17 -16 -13 -17 -12 -4 4 13 16 21 21 21 13z
m60 -71 c0 -5 -5 -3 -10 5 -5 8 -10 20 -10 25 0 6 5 3 10 -5 5 -8 10 -19 10
-25z m20 -50 c0 -5 -5 -3 -10 5 -5 8 -10 20 -10 25 0 6 5 3 10 -5 5 -8 10 -19
10 -25z"/>
<path d="M0 20 c0 -20 7 -20 1530 -20 1523 0 1530 0 1530 20 0 20 -7 20 -1530
20 -1523 0 -1530 0 -1530 -20z"/>
</g>
</svg>
